<svg width="278" height="88" viewBox="0 0 278 88" fill="none" xmlns="http://www.w3.org/2000/svg">
<path d="M86.3906 44C89.3271 44 91.8295 45.0722 93.8977 47.2165C95.9659 49.3609 97 51.9554 97 55V73.8571C97 74.3155 96.8579 74.692 96.5737 74.9866C96.2896 75.2812 95.9264 75.4286 95.4844 75.4286H90.9375V78.5714C90.9375 81.1905 90.0534 83.4167 88.2852 85.25C86.5169 87.0833 84.3698 88 81.8438 88C79.3177 88 77.1706 87.0833 75.4023 85.25C73.6341 83.4167 72.75 81.1905 72.75 78.5714V75.4286H24.25V78.5714C24.25 81.1905 23.3659 83.4167 21.5977 85.25C19.8294 87.0833 17.6823 88 15.1562 88C12.6302 88 10.4831 87.0833 8.71484 85.25C6.94661 83.4167 6.0625 81.1905 6.0625 78.5714V75.4286H1.51562C1.07357 75.4286 0.710449 75.2812 0.42627 74.9866C0.14209 74.692 0 74.3155 0 73.8571V55C0 51.9554 1.0341 49.3609 3.10229 47.2165C5.17049 45.0722 7.67285 44 10.6094 44H11.9355L16.9087 23.4241C17.6349 20.3467 19.2769 17.7686 21.8345 15.6897C24.3921 13.6109 27.2181 12.5714 30.3125 12.5714H36.375V1.57143C36.375 1.1131 36.5171 0.736607 36.8013 0.441964C37.0854 0.147321 37.4486 0 37.8906 0H59.1094C59.5514 0 59.9146 0.147321 60.1987 0.441964C60.4829 0.736607 60.625 1.1131 60.625 1.57143V12.5714H66.6875C69.7819 12.5714 72.6079 13.6109 75.1655 15.6897C77.7231 17.7686 79.3651 20.3467 80.0913 23.4241L85.0645 44H86.3906ZM15.1562 67.5714C17.2402 67.5714 19.0243 66.8021 20.5083 65.2634C21.9924 63.7247 22.7344 61.875 22.7344 59.7143C22.7344 57.5536 21.9924 55.7039 20.5083 54.1652C19.0243 52.6265 17.2402 51.8571 15.1562 51.8571C13.0723 51.8571 11.2882 52.6265 9.8042 54.1652C8.32015 55.7039 7.57812 57.5536 7.57812 59.7143C7.57812 61.875 8.32015 63.7247 9.8042 65.2634C11.2882 66.8021 13.0723 67.5714 15.1562 67.5714ZM24.4395 44H72.5605L68.3452 26.4687C68.2821 26.2068 68.061 25.9204 67.6821 25.6094C67.3032 25.2984 66.9717 25.1429 66.6875 25.1429H30.3125C30.0283 25.1429 29.6968 25.2984 29.3179 25.6094C28.939 25.9204 28.7179 26.2068 28.6548 26.4687L24.4395 44ZM81.8438 67.5714C83.9277 67.5714 85.7118 66.8021 87.1958 65.2634C88.6799 63.7247 89.4219 61.875 89.4219 59.7143C89.4219 57.5536 88.6799 55.7039 87.1958 54.1652C85.7118 52.6265 83.9277 51.8571 81.8438 51.8571C79.7598 51.8571 77.9757 52.6265 76.4917 54.1652C75.0076 55.7039 74.2656 57.5536 74.2656 59.7143C74.2656 61.875 75.0076 63.7247 76.4917 65.2634C77.9757 66.8021 79.7598 67.5714 81.8438 67.5714Z" fill="black"/>
<path d="M139.835 18.3125H132.369C132.233 17.3466 131.955 16.4886 131.534 15.7386C131.114 14.9773 130.574 14.3295 129.915 13.7955C129.256 13.2614 128.494 12.8523 127.631 12.5682C126.778 12.2841 125.852 12.142 124.852 12.142C123.045 12.142 121.472 12.5909 120.131 13.4886C118.79 14.375 117.75 15.6705 117.011 17.375C116.273 19.0682 115.903 21.125 115.903 23.5455C115.903 26.0341 116.273 28.125 117.011 29.8182C117.761 31.5114 118.807 32.7898 120.148 33.6534C121.489 34.517 123.04 34.9489 124.801 34.9489C125.79 34.9489 126.705 34.8182 127.545 34.5568C128.398 34.2955 129.153 33.9148 129.812 33.4148C130.472 32.9034 131.017 32.2841 131.449 31.5568C131.892 30.8295 132.199 30 132.369 29.0682L139.835 29.1023C139.642 30.7045 139.159 32.25 138.386 33.7386C137.625 35.2159 136.597 36.5398 135.301 37.7102C134.017 38.8693 132.483 39.7898 130.699 40.4716C128.926 41.142 126.92 41.4773 124.682 41.4773C121.568 41.4773 118.784 40.7727 116.33 39.3636C113.886 37.9545 111.955 35.9148 110.534 33.2443C109.125 30.5739 108.42 27.3409 108.42 23.5455C108.42 19.7386 109.136 16.5 110.568 13.8295C112 11.1591 113.943 9.125 116.398 7.72727C118.852 6.31818 121.614 5.61364 124.682 5.61364C126.705 5.61364 128.58 5.89773 130.307 6.46591C132.045 7.03409 133.585 7.86364 134.926 8.95454C136.267 10.0341 137.358 11.358 138.199 12.9261C139.051 14.4943 139.597 16.2898 139.835 18.3125ZM157.257 41.4943C155.587 41.4943 154.098 41.2045 152.791 40.625C151.485 40.0341 150.451 39.1648 149.689 38.017C148.939 36.858 148.564 35.4148 148.564 33.6875C148.564 32.233 148.831 31.0114 149.365 30.0227C149.899 29.0341 150.627 28.2386 151.547 27.6364C152.468 27.0341 153.513 26.5795 154.684 26.2727C155.865 25.9659 157.104 25.75 158.399 25.625C159.922 25.4659 161.149 25.3182 162.081 25.1818C163.013 25.0341 163.689 24.8182 164.11 24.5341C164.53 24.25 164.74 23.8295 164.74 23.2727V23.1705C164.74 22.0909 164.399 21.2557 163.718 20.6648C163.047 20.0739 162.093 19.7784 160.854 19.7784C159.547 19.7784 158.507 20.0682 157.735 20.6477C156.962 21.2159 156.451 21.9318 156.201 22.7955L149.485 22.25C149.826 20.6591 150.496 19.2841 151.496 18.125C152.496 16.9545 153.786 16.0568 155.365 15.4318C156.956 14.7955 158.797 14.4773 160.888 14.4773C162.343 14.4773 163.735 14.6477 165.064 14.9886C166.405 15.3295 167.593 15.858 168.627 16.5739C169.672 17.2898 170.496 18.2102 171.098 19.3352C171.701 20.4489 172.002 21.7841 172.002 23.3409V41H165.115V37.3693H164.911C164.49 38.1875 163.928 38.9091 163.223 39.5341C162.519 40.1477 161.672 40.6307 160.684 40.983C159.695 41.3239 158.553 41.4943 157.257 41.4943ZM159.337 36.483C160.405 36.483 161.348 36.2727 162.166 35.8523C162.985 35.4205 163.627 34.8409 164.093 34.1136C164.559 33.3864 164.791 32.5625 164.791 31.642V28.8636C164.564 29.0114 164.252 29.1477 163.854 29.2727C163.468 29.3864 163.03 29.4943 162.541 29.5966C162.053 29.6875 161.564 29.7727 161.076 29.8523C160.587 29.9205 160.144 29.983 159.746 30.0398C158.894 30.1648 158.149 30.3636 157.513 30.6364C156.877 30.9091 156.382 31.2784 156.03 31.7443C155.678 32.1989 155.502 32.767 155.502 33.4489C155.502 34.4375 155.86 35.1932 156.576 35.7159C157.303 36.2273 158.223 36.483 159.337 36.483ZM182.572 41V6.09091H189.833V19.2159H190.055C190.373 18.5114 190.833 17.7955 191.435 17.0682C192.049 16.3295 192.844 15.7159 193.822 15.2273C194.81 14.7273 196.037 14.4773 197.503 14.4773C199.412 14.4773 201.174 14.9773 202.787 15.9773C204.401 16.9659 205.691 18.4602 206.657 20.4602C207.623 22.4489 208.106 24.9432 208.106 27.9432C208.106 30.8636 207.634 33.3295 206.691 35.3409C205.759 37.3409 204.486 38.858 202.873 39.892C201.27 40.9148 199.475 41.4261 197.486 41.4261C196.077 41.4261 194.878 41.1932 193.89 40.7273C192.912 40.2614 192.111 39.6761 191.486 38.9716C190.861 38.2557 190.384 37.5341 190.055 36.8068H189.731V41H182.572ZM189.68 27.9091C189.68 29.4659 189.895 30.8239 190.327 31.983C190.759 33.142 191.384 34.0455 192.202 34.6932C193.02 35.3295 194.015 35.6477 195.185 35.6477C196.367 35.6477 197.367 35.3239 198.185 34.6761C199.003 34.017 199.623 33.108 200.043 31.9489C200.475 30.7784 200.691 29.4318 200.691 27.9091C200.691 26.3977 200.481 25.0682 200.06 23.9205C199.64 22.7727 199.02 21.875 198.202 21.2273C197.384 20.5795 196.378 20.2557 195.185 20.2557C194.003 20.2557 193.003 20.5682 192.185 21.1932C191.378 21.8182 190.759 22.7045 190.327 23.8523C189.895 25 189.68 26.3523 189.68 27.9091ZM217.887 41V6.09091H225.149V19.2159H225.37C225.688 18.5114 226.149 17.7955 226.751 17.0682C227.364 16.3295 228.16 15.7159 229.137 15.2273C230.126 14.7273 231.353 14.4773 232.819 14.4773C234.728 14.4773 236.489 14.9773 238.103 15.9773C239.717 16.9659 241.007 18.4602 241.972 20.4602C242.938 22.4489 243.421 24.9432 243.421 27.9432C243.421 30.8636 242.95 33.3295 242.007 35.3409C241.075 37.3409 239.802 38.858 238.188 39.892C236.586 40.9148 234.791 41.4261 232.802 41.4261C231.393 41.4261 230.194 41.1932 229.205 40.7273C228.228 40.2614 227.427 39.6761 226.802 38.9716C226.177 38.2557 225.7 37.5341 225.37 36.8068H225.046V41H217.887ZM224.995 27.9091C224.995 29.4659 225.211 30.8239 225.643 31.983C226.075 33.142 226.7 34.0455 227.518 34.6932C228.336 35.3295 229.33 35.6477 230.501 35.6477C231.683 35.6477 232.683 35.3239 233.501 34.6761C234.319 34.017 234.938 33.108 235.359 31.9489C235.791 30.7784 236.007 29.4318 236.007 27.9091C236.007 26.3977 235.796 25.0682 235.376 23.9205C234.955 22.7727 234.336 21.875 233.518 21.2273C232.7 20.5795 231.694 20.2557 230.501 20.2557C229.319 20.2557 228.319 20.5682 227.501 21.1932C226.694 21.8182 226.075 22.7045 225.643 23.8523C225.211 25 224.995 26.3523 224.995 27.9091ZM256.706 50.8182C255.785 50.8182 254.922 50.7443 254.115 50.5966C253.319 50.4602 252.66 50.2841 252.137 50.0682L253.774 44.6477C254.626 44.9091 255.393 45.0511 256.075 45.0739C256.768 45.0966 257.365 44.9375 257.865 44.5966C258.376 44.2557 258.791 43.6761 259.109 42.858L259.535 41.75L250.143 14.8182H257.78L263.2 34.0455H263.473L268.944 14.8182H276.632L266.456 43.8295C265.967 45.2386 265.302 46.4659 264.461 47.5114C263.632 48.5682 262.581 49.3807 261.308 49.9489C260.035 50.5284 258.501 50.8182 256.706 50.8182Z" fill="black"/>
<path d="M115.881 72V60.3636H120.733C121.604 60.3636 122.333 60.4867 122.92 60.733C123.511 60.9792 123.955 61.3239 124.25 61.767C124.549 62.2102 124.699 62.7235 124.699 63.3068C124.699 63.75 124.606 64.1458 124.42 64.4943C124.235 64.839 123.979 65.125 123.653 65.3523C123.328 65.5795 122.951 65.7386 122.523 65.8295V65.9432C122.992 65.9659 123.426 66.0928 123.824 66.3239C124.225 66.5549 124.547 66.8769 124.79 67.2898C125.032 67.6989 125.153 68.1837 125.153 68.7443C125.153 69.3693 124.994 69.928 124.676 70.4205C124.358 70.9091 123.898 71.2955 123.295 71.5795C122.693 71.8598 121.962 72 121.102 72H115.881ZM118.693 69.733H120.432C121.042 69.733 121.491 69.6174 121.778 69.3864C122.07 69.1553 122.216 68.8333 122.216 68.4205C122.216 68.1212 122.146 67.8636 122.006 67.6477C121.866 67.428 121.667 67.2595 121.409 67.142C121.152 67.0208 120.843 66.9602 120.483 66.9602H118.693V69.733ZM118.693 65.1477H120.25C120.557 65.1477 120.83 65.0966 121.068 64.9943C121.307 64.892 121.492 64.7443 121.625 64.5511C121.761 64.358 121.83 64.125 121.83 63.8523C121.83 63.4621 121.691 63.1553 121.415 62.9318C121.138 62.7083 120.765 62.5966 120.295 62.5966H118.693V65.1477ZM132.58 72.1648C131.663 72.1648 130.875 71.9773 130.216 71.6023C129.561 71.2235 129.055 70.697 128.699 70.0227C128.347 69.3447 128.17 68.5587 128.17 67.6648C128.17 66.767 128.347 65.9811 128.699 65.3068C129.055 64.6288 129.561 64.1023 130.216 63.7273C130.875 63.3485 131.663 63.1591 132.58 63.1591C133.496 63.1591 134.282 63.3485 134.938 63.7273C135.597 64.1023 136.102 64.6288 136.455 65.3068C136.811 65.9811 136.989 66.767 136.989 67.6648C136.989 68.5587 136.811 69.3447 136.455 70.0227C136.102 70.697 135.597 71.2235 134.938 71.6023C134.282 71.9773 133.496 72.1648 132.58 72.1648ZM132.597 70.0682C132.93 70.0682 133.212 69.9659 133.443 69.7614C133.674 69.5568 133.85 69.2727 133.972 68.9091C134.097 68.5455 134.159 68.125 134.159 67.6477C134.159 67.1629 134.097 66.7386 133.972 66.375C133.85 66.0114 133.674 65.7273 133.443 65.5227C133.212 65.3182 132.93 65.2159 132.597 65.2159C132.252 65.2159 131.96 65.3182 131.722 65.5227C131.487 65.7273 131.307 66.0114 131.182 66.375C131.061 66.7386 131 67.1629 131 67.6477C131 68.125 131.061 68.5455 131.182 68.9091C131.307 69.2727 131.487 69.5568 131.722 69.7614C131.96 69.9659 132.252 70.0682 132.597 70.0682ZM144.486 72.1648C143.569 72.1648 142.781 71.9773 142.122 71.6023C141.467 71.2235 140.961 70.697 140.605 70.0227C140.253 69.3447 140.077 68.5587 140.077 67.6648C140.077 66.767 140.253 65.9811 140.605 65.3068C140.961 64.6288 141.467 64.1023 142.122 63.7273C142.781 63.3485 143.569 63.1591 144.486 63.1591C145.402 63.1591 146.188 63.3485 146.844 63.7273C147.503 64.1023 148.009 64.6288 148.361 65.3068C148.717 65.9811 148.895 66.767 148.895 67.6648C148.895 68.5587 148.717 69.3447 148.361 70.0227C148.009 70.697 147.503 71.2235 146.844 71.6023C146.188 71.9773 145.402 72.1648 144.486 72.1648ZM144.503 70.0682C144.836 70.0682 145.118 69.9659 145.349 69.7614C145.58 69.5568 145.757 69.2727 145.878 68.9091C146.003 68.5455 146.065 68.125 146.065 67.6477C146.065 67.1629 146.003 66.7386 145.878 66.375C145.757 66.0114 145.58 65.7273 145.349 65.5227C145.118 65.3182 144.836 65.2159 144.503 65.2159C144.158 65.2159 143.866 65.3182 143.628 65.5227C143.393 65.7273 143.213 66.0114 143.088 66.375C142.967 66.7386 142.906 67.1629 142.906 67.6477C142.906 68.125 142.967 68.5455 143.088 68.9091C143.213 69.2727 143.393 69.5568 143.628 69.7614C143.866 69.9659 144.158 70.0682 144.503 70.0682ZM154.824 69.7102L154.835 66.3977H155.222L157.676 63.2727H160.824L157.176 67.75H156.443L154.824 69.7102ZM152.318 72V60.3636H155.097V72H152.318ZM157.739 72L155.455 68.375L157.284 66.4034L160.949 72H157.739ZM168.676 60.3636H171.818L174.278 65.233H174.381L176.841 60.3636H179.983L175.727 68.1136V72H172.932V68.1136L168.676 60.3636ZM185.22 72.1648C184.304 72.1648 183.516 71.9773 182.857 71.6023C182.201 71.2235 181.696 70.697 181.339 70.0227C180.987 69.3447 180.811 68.5587 180.811 67.6648C180.811 66.767 180.987 65.9811 181.339 65.3068C181.696 64.6288 182.201 64.1023 182.857 63.7273C183.516 63.3485 184.304 63.1591 185.22 63.1591C186.137 63.1591 186.923 63.3485 187.578 63.7273C188.237 64.1023 188.743 64.6288 189.095 65.3068C189.451 65.9811 189.629 66.767 189.629 67.6648C189.629 68.5587 189.451 69.3447 189.095 70.0227C188.743 70.697 188.237 71.2235 187.578 71.6023C186.923 71.9773 186.137 72.1648 185.22 72.1648ZM185.237 70.0682C185.571 70.0682 185.853 69.9659 186.084 69.7614C186.315 69.5568 186.491 69.2727 186.612 68.9091C186.737 68.5455 186.8 68.125 186.8 67.6477C186.8 67.1629 186.737 66.7386 186.612 66.375C186.491 66.0114 186.315 65.7273 186.084 65.5227C185.853 65.3182 185.571 65.2159 185.237 65.2159C184.893 65.2159 184.601 65.3182 184.362 65.5227C184.127 65.7273 183.947 66.0114 183.822 66.375C183.701 66.7386 183.641 67.1629 183.641 67.6477C183.641 68.125 183.701 68.5455 183.822 68.9091C183.947 69.2727 184.127 69.5568 184.362 69.7614C184.601 69.9659 184.893 70.0682 185.237 70.0682ZM198.683 68.233V63.2727H201.456V72H198.808V70.375H198.717C198.524 70.9091 198.195 71.3333 197.729 71.6477C197.267 71.9583 196.708 72.1136 196.053 72.1136C195.458 72.1136 194.935 71.9773 194.484 71.7045C194.034 71.4318 193.683 71.0511 193.433 70.5625C193.183 70.0701 193.056 69.4943 193.053 68.8352V63.2727H195.831V68.2898C195.835 68.7633 195.96 69.1364 196.206 69.4091C196.452 69.6818 196.787 69.8182 197.212 69.8182C197.488 69.8182 197.736 69.7576 197.956 69.6364C198.179 69.5114 198.356 69.3314 198.484 69.0966C198.617 68.858 198.683 68.5701 198.683 68.233ZM205.224 72V63.2727H207.923V64.8636H208.014C208.173 64.2879 208.433 63.8598 208.793 63.5795C209.152 63.2955 209.571 63.1534 210.048 63.1534C210.177 63.1534 210.31 63.1629 210.446 63.1818C210.582 63.197 210.709 63.2216 210.827 63.2557V65.6705C210.694 65.625 210.52 65.589 210.304 65.5625C210.092 65.536 209.902 65.5227 209.736 65.5227C209.406 65.5227 209.109 65.5966 208.844 65.7443C208.582 65.8883 208.376 66.0909 208.224 66.3523C208.077 66.6098 208.003 66.9129 208.003 67.2614V72H205.224ZM219.396 72V60.3636H224.203C225.074 60.3636 225.826 60.5208 226.459 60.8352C227.095 61.1458 227.586 61.5928 227.93 62.1761C228.275 62.7557 228.447 63.4432 228.447 64.2386C228.447 65.0455 228.271 65.7311 227.919 66.2955C227.567 66.8561 227.067 67.2841 226.419 67.5795C225.771 67.8712 225.004 68.017 224.118 68.017H221.078V65.8011H223.595C224.019 65.8011 224.374 65.7462 224.658 65.6364C224.946 65.5227 225.163 65.3523 225.311 65.125C225.459 64.8939 225.533 64.5985 225.533 64.2386C225.533 63.8788 225.459 63.5814 225.311 63.3466C225.163 63.108 224.946 62.9299 224.658 62.8125C224.37 62.6913 224.016 62.6307 223.595 62.6307H222.209V72H219.396ZM225.947 66.6818L228.845 72H225.777L222.936 66.6818H225.947ZM231.99 72V63.2727H234.768V72H231.99ZM233.382 62.2557C232.992 62.2557 232.657 62.1269 232.376 61.8693C232.096 61.608 231.956 61.2936 231.956 60.9261C231.956 60.5625 232.096 60.2519 232.376 59.9943C232.657 59.733 232.992 59.6023 233.382 59.6023C233.776 59.6023 234.111 59.733 234.388 59.9943C234.668 60.2519 234.808 60.5625 234.808 60.9261C234.808 61.2936 234.668 61.608 234.388 61.8693C234.111 62.1269 233.776 62.2557 233.382 62.2557ZM241.724 72.125C241.08 72.125 240.495 71.9583 239.969 71.625C239.442 71.2917 239.022 70.7917 238.707 70.125C238.393 69.4583 238.236 68.6307 238.236 67.642C238.236 66.6155 238.399 65.7708 238.724 65.108C239.05 64.4451 239.476 63.9545 240.003 63.6364C240.533 63.3182 241.103 63.1591 241.713 63.1591C242.171 63.1591 242.563 63.2386 242.889 63.3977C243.215 63.553 243.484 63.7538 243.696 64C243.908 64.2462 244.069 64.5019 244.179 64.767H244.236V60.3636H247.014V72H244.264V70.5852H244.179C244.062 70.8542 243.895 71.1061 243.679 71.3409C243.463 71.5758 243.192 71.7652 242.866 71.9091C242.545 72.053 242.164 72.125 241.724 72.125ZM242.69 69.9602C243.027 69.9602 243.315 69.8655 243.554 69.6761C243.793 69.483 243.976 69.2121 244.105 68.8636C244.234 68.5152 244.298 68.1061 244.298 67.6364C244.298 67.1591 244.234 66.7481 244.105 66.4034C243.98 66.0587 243.796 65.7936 243.554 65.608C243.315 65.4223 243.027 65.3295 242.69 65.3295C242.346 65.3295 242.054 65.4242 241.815 65.6136C241.577 65.803 241.395 66.0701 241.27 66.4148C241.149 66.7595 241.088 67.1667 241.088 67.6364C241.088 68.1061 241.151 68.5152 241.276 68.8636C241.401 69.2121 241.58 69.483 241.815 69.6761C242.054 69.8655 242.346 69.9602 242.69 69.9602ZM254.851 72.1648C253.938 72.1648 253.15 71.9848 252.487 71.625C251.828 71.2614 251.321 70.7443 250.964 70.0739C250.612 69.3996 250.436 68.5985 250.436 67.6705C250.436 66.7689 250.614 65.9811 250.97 65.3068C251.326 64.6288 251.828 64.1023 252.476 63.7273C253.124 63.3485 253.887 63.1591 254.766 63.1591C255.387 63.1591 255.955 63.2557 256.47 63.4489C256.985 63.642 257.43 63.928 257.805 64.3068C258.18 64.6856 258.472 65.1534 258.68 65.7102C258.889 66.2633 258.993 66.8977 258.993 67.6136V68.3068H251.408V66.6932H256.408C256.404 66.3977 256.334 66.1345 256.197 65.9034C256.061 65.6723 255.874 65.4924 255.635 65.3636C255.4 65.2311 255.129 65.1648 254.822 65.1648C254.512 65.1648 254.233 65.2348 253.987 65.375C253.741 65.5114 253.546 65.6989 253.402 65.9375C253.258 66.1723 253.182 66.4394 253.175 66.7386V68.3807C253.175 68.7367 253.245 69.0492 253.385 69.3182C253.525 69.5833 253.724 69.7898 253.982 69.9375C254.239 70.0852 254.546 70.1591 254.902 70.1591C255.148 70.1591 255.372 70.125 255.572 70.0568C255.773 69.9886 255.946 69.8883 256.089 69.7557C256.233 69.6231 256.341 69.4602 256.413 69.267L258.964 69.3409C258.858 69.9129 258.625 70.411 258.266 70.8352C257.91 71.2557 257.442 71.5833 256.862 71.8182C256.283 72.0492 255.612 72.1648 254.851 72.1648Z" fill="black"/>
</svg>
